<svg xmlns="http://www.w3.org/2000/svg" width="48.375" height="43" viewBox="0 0 48.375 43">
  <defs>
    <style>
      .cls-1 {
        fill: #bc6c42;
      }
    </style>
  </defs>
  <path id="Icon_awesome-quote-right" data-name="Icon awesome-quote-right" class="cls-1" d="M4.535,45.25H16.629a4.573,4.573,0,0,0,4.535-4.607V28.357a4.573,4.573,0,0,0-4.535-4.607H9.07V17.607a6.1,6.1,0,0,1,6.047-6.143h.756a2.28,2.28,0,0,0,2.268-2.3V4.554a2.28,2.28,0,0,0-2.268-2.3h-.756A15.234,15.234,0,0,0,0,17.607V40.643A4.573,4.573,0,0,0,4.535,45.25Zm27.211,0H43.84a4.573,4.573,0,0,0,4.535-4.607V28.357A4.573,4.573,0,0,0,43.84,23.75H36.281V17.607a6.1,6.1,0,0,1,6.047-6.143h.756a2.28,2.28,0,0,0,2.268-2.3V4.554a2.28,2.28,0,0,0-2.268-2.3h-.756A15.234,15.234,0,0,0,27.211,17.607V40.643A4.573,4.573,0,0,0,31.746,45.25Z" transform="translate(0 -2.25)"/>
</svg>
