<svg xmlns="http://www.w3.org/2000/svg" width="99.905" height="27" viewBox="0 0 99.905 27">
  <defs>
    <style>
      .cls-1 {
        fill: #acb3c0;
      }
    </style>
  </defs>
  <path id="netflix-2015-logo" class="cls-1" d="M13.737,25.26c-1.5.264-3.032.343-4.614.554L4.3,11.681V26.42c-1.5.158-2.874.369-4.3.58V0H4.008L9.492,15.32V0h4.245ZM22.043,9.888c1.635,0,4.14-.079,5.643-.079v4.219c-1.872,0-4.061,0-5.643.079v6.275c2.479-.158,4.957-.369,7.462-.448v4.06l-11.681.923V0H29.5V4.219H22.043Zm23.15-5.669H40.816V23.625c-1.424,0-2.848,0-4.219.053V4.219H32.221V0H45.193V4.219ZM52.049,9.6h5.775v4.219H52.049v9.571h-4.14V0H59.7V4.219H52.049Zm14.5,10.1c2.4.053,4.825.237,7.172.369v4.166c-3.77-.237-7.541-.474-11.391-.554V0h4.219Zm10.731,4.825c1.345.079,2.769.158,4.14.316V0h-4.14ZM99.905,0,94.553,12.841,99.905,27c-1.582-.211-3.164-.5-4.746-.765l-3.032-7.8L89.042,25.6c-1.53-.264-3.006-.343-4.535-.554l5.432-12.366L85.034,0h4.535l2.769,7.093L95.291,0Z"/>
</svg>
