<svg xmlns="http://www.w3.org/2000/svg" width="91.907" height="30" viewBox="0 0 91.907 30">
  <defs>
    <style>
      .cls-1 {
        fill: #acb3c0;
      }
    </style>
  </defs>
  <g id="google-2015" transform="translate(0.003)">
    <path id="Path_3446" data-name="Path 3446" class="cls-1" d="M11.316,0h.817a11.152,11.152,0,0,1,7.633,3.223c-.74.756-1.5,1.48-2.221,2.236a8.341,8.341,0,0,0-14,5.027A8.584,8.584,0,0,0,5.41,17.117a8.254,8.254,0,0,0,6.014,2.961,8.006,8.006,0,0,0,5.983-2.051A6.531,6.531,0,0,0,19.4,13.771c-2.56,0-5.12.015-7.679,0V10.594H22.5c.555,3.408-.247,7.248-2.837,9.684a10.539,10.539,0,0,1-6.554,2.945,12.036,12.036,0,0,1-6.893-1.357A11.868,11.868,0,0,1,.707,15.59,11.37,11.37,0,0,1,.63,7.9,11.74,11.74,0,0,1,4.87,2.267,12.106,12.106,0,0,1,11.316,0Z" transform="translate(0)"/>
    <path id="Path_3447" data-name="Path 3447" class="cls-1" d="M474.4,5.2h3.3V27.221c-1.095,0-2.205.015-3.3-.015.015-7.325,0-14.665,0-22.005Z" transform="translate(-401.247 -4.398)"/>
    <path id="Path_3448" data-name="Path 3448" class="cls-1" d="M160.331,53.95a7.749,7.749,0,0,1,5.921,1.264,7.243,7.243,0,0,1,2.914,4.626,7.457,7.457,0,0,1-7.834,8.944,7.5,7.5,0,0,1-5.613-3.007,7.708,7.708,0,0,1-1.018-7,7.318,7.318,0,0,1,5.628-4.827m.463,2.93a4.146,4.146,0,0,0-2.159,1.372,4.891,4.891,0,0,0,.247,6.369,4.106,4.106,0,0,0,3.67,1.141,4.153,4.153,0,0,0,2.868-2.113,4.877,4.877,0,0,0-.833-5.8,4.161,4.161,0,0,0-3.793-.972Z" transform="translate(-130.494 -45.515)"/>
    <path id="Path_3449" data-name="Path 3449" class="cls-1" d="M266.357,53.943a7.5,7.5,0,0,1,7.34,12.074,7.627,7.627,0,0,1-11.951-.247,7.783,7.783,0,0,1-.971-7.155,7.324,7.324,0,0,1,5.582-4.672m.463,2.93a4.217,4.217,0,0,0-2.159,1.357,4.9,4.9,0,0,0,.17,6.307,4.126,4.126,0,0,0,3.763,1.218,4.23,4.23,0,0,0,2.868-2.113,4.9,4.9,0,0,0-.864-5.814A4.134,4.134,0,0,0,266.82,56.873Z" transform="translate(-220.175 -45.508)"/>
    <path id="Path_3450" data-name="Path 3450" class="cls-1" d="M369.576,54.835a6.3,6.3,0,0,1,6.045-.463,5.76,5.76,0,0,1,1.573,1.157c.015-.416,0-.848.015-1.28,1.033.015,2.066,0,3.115.015v13.6a8.128,8.128,0,0,1-2.02,5.721,7.351,7.351,0,0,1-6.338,1.82,7.171,7.171,0,0,1-5.4-4.3c.925-.447,1.9-.8,2.853-1.218a4.241,4.241,0,0,0,3.007,2.591,4,4,0,0,0,3.855-1.234c.956-1.172.956-2.776.91-4.21a5.474,5.474,0,0,1-2.514,1.542,6.777,6.777,0,0,1-6.153-1.588,7.591,7.591,0,0,1,1.049-12.151m3.192,1.974a4.057,4.057,0,0,0-2.421,1.4,4.92,4.92,0,0,0,.015,6.184,4.035,4.035,0,0,0,3.47,1.419,3.918,3.918,0,0,0,2.945-1.958,5.2,5.2,0,0,0-.524-5.829A3.8,3.8,0,0,0,372.768,56.809Z" transform="translate(-309.53 -45.506)"/>
    <path id="Path_3451" data-name="Path 3451" class="cls-1" d="M508.676,55.569a6.96,6.96,0,0,1,7.078-1.4,7.966,7.966,0,0,1,4.41,5.2c-3.346,1.388-6.677,2.76-10.023,4.148a3.977,3.977,0,0,0,2.128,2,4.32,4.32,0,0,0,4.071-.586,6.564,6.564,0,0,0,1.141-1.218c.848.571,1.7,1.126,2.544,1.7a7.55,7.55,0,0,1-11.92.756,7.9,7.9,0,0,1,.571-10.594m1.65,2.853a4.4,4.4,0,0,0-.725,2.591q3.354-1.388,6.708-2.791a2.774,2.774,0,0,0-2.174-1.527A3.94,3.94,0,0,0,510.326,58.422Z" transform="translate(-428.26 -45.453)"/>
  </g>
</svg>
