<svg id="uber-2" xmlns="http://www.w3.org/2000/svg" width="77.776" height="27" viewBox="0 0 77.776 27">
  <defs>
    <style>
      .cls-1 {
        fill: #acb3c0;
      }
    </style>
  </defs>
  <path id="Path_3452" data-name="Path 3452" class="cls-1" d="M4.475,19.283A6.65,6.65,0,0,0,5.84,21.52a5.874,5.874,0,0,0,2.067,1.422,6.743,6.743,0,0,0,2.6.493,6.428,6.428,0,0,0,2.56-.512,6.3,6.3,0,0,0,2.086-1.441,6.533,6.533,0,0,0,1.384-2.218,8.015,8.015,0,0,0,.493-2.882V0h3.982V26.545H17.065V24.08a9.142,9.142,0,0,1-3.129,2.162A9.915,9.915,0,0,1,10.049,27a10.524,10.524,0,0,1-3.963-.739,9.279,9.279,0,0,1-3.185-2.1,9.928,9.928,0,0,1-2.124-3.28A11.246,11.246,0,0,1,0,16.61V0H3.982V16.382a8.17,8.17,0,0,0,.493,2.9ZM27.872,0V9.67a10.143,10.143,0,0,1,3.072-2.1,9.208,9.208,0,0,1,3.792-.777,10,10,0,0,1,3.982.8A10.032,10.032,0,0,1,44.1,12.969a9.907,9.907,0,0,1,.8,3.944,9.771,9.771,0,0,1-.8,3.925A10.081,10.081,0,0,1,38.717,26.2a10,10,0,0,1-3.982.8,9.34,9.34,0,0,1-3.811-.777,10.074,10.074,0,0,1-3.091-2.1v2.427H24.042V0Zm.436,19.529a6.6,6.6,0,0,0,1.422,2.124,6.862,6.862,0,0,0,2.124,1.441,6.456,6.456,0,0,0,2.617.531,6.363,6.363,0,0,0,2.579-.531,6.634,6.634,0,0,0,2.1-1.441,7.033,7.033,0,0,0,1.422-2.124,6.455,6.455,0,0,0,.531-2.617,6.59,6.59,0,0,0-.531-2.636,6.97,6.97,0,0,0-1.422-2.143,6.385,6.385,0,0,0-2.1-1.422,6.667,6.667,0,0,0-7.281,1.422,6.8,6.8,0,0,0-1.441,2.143,6.59,6.59,0,0,0-.531,2.636,6.661,6.661,0,0,0,.512,2.617ZM47.06,13.007a10.317,10.317,0,0,1,2.086-3.2A10.033,10.033,0,0,1,60.1,7.584a9.174,9.174,0,0,1,3.072,2.1,9.62,9.62,0,0,1,2.01,3.185,10.873,10.873,0,0,1,.721,4v1.251H50.169a6.485,6.485,0,0,0,.758,2.18,6.574,6.574,0,0,0,1.422,1.744,6.5,6.5,0,0,0,1.934,1.157,6.316,6.316,0,0,0,2.294.417,6.635,6.635,0,0,0,5.574-2.844l2.768,2.048a10.1,10.1,0,0,1-8.343,4.133,10.679,10.679,0,0,1-4.039-.758,9.834,9.834,0,0,1-3.261-2.124,10.074,10.074,0,0,1-2.18-3.2,10.346,10.346,0,0,1-.038-7.869Zm5.328-1.5a6.463,6.463,0,0,0-2.143,3.584H62.039a6.273,6.273,0,0,0-2.1-3.584,5.961,5.961,0,0,0-7.546,0Zm20.686.436a5.135,5.135,0,0,0-1.213,3.6v11H68.03V7.205h3.792V9.594A5.39,5.39,0,0,1,73.7,7.736a5.312,5.312,0,0,1,2.749-.683h1.327v3.565H76.183a4.025,4.025,0,0,0-3.109,1.327Z"/>
</svg>
