<svg id="axn-logo-2015-" xmlns="http://www.w3.org/2000/svg" width="92.159" height="30" viewBox="0 0 92.159 30">
  <defs>
    <style>
      .cls-1 {
        fill: #acb3c0;
      }
    </style>
  </defs>
  <path id="Path_3440" data-name="Path 3440" class="cls-1" d="M18.434,38.8,0,57.234H9.217l2.3-2.3H27.651l-4.614-4.6h-6.9l6.916-6.916Z" transform="translate(0 -34.197)"/>
  <path id="Path_3441" data-name="Path 3441" class="cls-1" d="M121.2,38.8l-4.6,4.6,13.82,13.82h9.217Z" transform="translate(-102.768 -34.197)"/>
  <path id="Path_3442" data-name="Path 3442" class="cls-1" d="M204.4,0l-9.217,9.217-4.6-4.6h-9.217l9.217,9.217L174.4,30h9.217l11.566-11.566,4.6,4.6H209l-9.217-9.217L213.617,0Z" transform="translate(-153.712)"/>
  <path id="Path_3443" data-name="Path 3443" class="cls-1" d="M406.934,38.8,388.5,57.234h9.217l9.217-9.217,9.217,9.217L434.574,38.8h-9.217l-9.217,9.217Z" transform="translate(-342.415 -34.197)"/>
  <path id="Path_3444" data-name="Path 3444" class="cls-1" d="M485.6,142.9h13.82l-6.9-6.9Z" transform="translate(-427.996 -119.867)"/>
  <path id="Path_3445" data-name="Path 3445" class="cls-1" d="M546.2,142.9h4.6l-6.9-6.9Z" transform="translate(-479.38 -119.867)"/>
</svg>
