<svg xmlns="http://www.w3.org/2000/svg" width="121.96" height="27" viewBox="0 0 121.96 27">
  <defs>
    <style>
      .cls-1 {
        fill: #acb3c0;
      }
    </style>
  </defs>
  <g id="verizon-2015" transform="translate(0 -0.034)">
    <path id="Path_3453" data-name="Path 3453" class="cls-1" d="M447.675.075c.936-.049,1.872-.049,2.808-.025-2.808,5.863-5.518,11.775-8.252,17.662H439.94c-1.256-2.956-2.734-5.838-4.04-8.794q1.367-.037,2.734,0c.788,1.823,1.724,3.572,2.439,5.395C443.265,9.559,445.532,4.829,447.675.075Z" transform="translate(-328.523 0)"/>
    <path id="Path_3454" data-name="Path 3454" class="cls-1" d="M48.626,10.4c1.8.025,3.621.025,5.419,0-.025,1.6-.025,3.227,0,4.828-1.8-.025-3.621,0-5.444-.025C48.651,13.6,48.6,12,48.626,10.4ZM21.357,17.3c3.7-2.094,9.065-1.379,11.553,2.242a12.488,12.488,0,0,1,1.946,7.415c-4.237.025-8.474,0-12.711.025a4.526,4.526,0,0,0,1.971,3.375c1.724,1.01,4.434.714,5.3-1.281,1.749-.049,3.473-.049,5.222,0A7.536,7.536,0,0,1,30.816,33.7a10.126,10.126,0,0,1-6.528.911,8.6,8.6,0,0,1-5.764-3.621,10.259,10.259,0,0,1-1.478-7.144A8.755,8.755,0,0,1,21.357,17.3Zm2.882,3.079a4.256,4.256,0,0,0-2.069,3.128h7.242a4.394,4.394,0,0,0-1.232-2.636A3.649,3.649,0,0,0,24.239,20.377Zm53.923-4.015a9.977,9.977,0,0,1,8.375,2.118A9.784,9.784,0,0,1,86.981,32.1a9.959,9.959,0,0,1-11.11,1.823,8.879,8.879,0,0,1-5-7.094,10.872,10.872,0,0,1,.665-5.173,8.742,8.742,0,0,1,6.626-5.3Zm.616,4.015c-1.527.542-2.242,2.192-2.463,3.7-.172,1.872-.148,3.991,1.059,5.543a3.613,3.613,0,0,0,5.493-.025A6.93,6.93,0,0,0,84,24.712a5.17,5.17,0,0,0-1.823-3.966,3.855,3.855,0,0,0-3.4-.37ZM97.5,17.371a6.6,6.6,0,0,1,6.429-.714,5.8,5.8,0,0,1,3.1,3.449,13.4,13.4,0,0,1,.419,4.853c0,3.1-.025,6.208.025,9.287-1.8.025-3.6,0-5.419.025V23.628A2.837,2.837,0,0,0,97.13,21.51a4.116,4.116,0,0,0-1.109,3.005V34.27c-1.774-.025-3.572,0-5.345-.025,0-5.863.025-11.726,0-17.588,1.749.025,3.473-.025,5.222.025-.025.813-.025,1.626-.049,2.439a12.291,12.291,0,0,1,1.65-1.749ZM0,16.706H5.616c1.133,3.769,2.34,7.538,3.4,11.331,1.306-3.72,2.291-7.562,3.523-11.331,1.8-.025,3.621,0,5.419-.025-2.069,5.863-4.089,11.726-6.134,17.588-1.872,0-3.744-.025-5.616.025C4.065,28.456,2.168,22.52,0,16.706Zm36.088-.025h5.173c-.025.985,0,1.971-.049,2.956.443-.493.764-1.109,1.232-1.577a4.82,4.82,0,0,1,4.73-1.355c-.025,1.552-.025,3.1,0,4.631a5.639,5.639,0,0,0-3.941.714,4.54,4.54,0,0,0-1.724,3.818c-.025,2.808,0,5.592,0,8.4-1.8,0-3.621-.025-5.419.025Q36.125,25.463,36.088,16.682Zm12.538.025c1.823-.025,3.621,0,5.444-.025-.025,5.863,0,11.726,0,17.588-1.8-.025-3.621,0-5.444,0Zm6.9-.025c4.9.025,9.8,0,14.682.025-.049,1.355,0,2.685-.025,4.04a6.1,6.1,0,0,1-.69.887c-2.513,2.784-4.976,5.641-7.538,8.4,2.882.049,5.764,0,8.646.025v4.237q-7.538-.037-15.076,0V30.205c2.636-2.956,5.247-5.887,7.907-8.819.074-.148.394-.3.222-.493-2.71.074-5.419,0-8.129.049Z" transform="translate(0 -7.812)"/>
  </g>
</svg>
