<svg xmlns="http://www.w3.org/2000/svg" width="130.811" height="27" viewBox="0 0 130.811 27">
  <defs>
    <style>
      .cls-1 {
        fill: #acb3c0;
      }
    </style>
  </defs>
  <path id="lenovo-logo-2015" class="cls-1" d="M57.326,7.206a8.524,8.524,0,0,0-6.69,3.287v0h0V7.55H45V28.066h5.633V16.393a4.4,4.4,0,0,1,4.645-4.334,4.519,4.519,0,0,1,4.743,4.334V28.066h5.634V15.349c0-4.719-3.376-8.142-8.332-8.142m48.372.345-5.093,13.975L95.512,7.552H89.077l8.441,20.509h6.173l8.441-20.509Zm-77.512,6.18a5.241,5.241,0,0,1,4.333-2.045,4.713,4.713,0,0,1,4.366,2.871l-9.842,4.083a6.6,6.6,0,0,1,1.143-4.91m10.823,8.027c-2.371,1.755-3.726,2.173-5.888,2.173a6.242,6.242,0,0,1-4.543-1.664l14.4-5.975a11.12,11.12,0,0,0-2.46-5.728,10.293,10.293,0,0,0-8.1-3.36A10.508,10.508,0,0,0,21.551,17.811c0,6.192,4.682,10.6,11.486,10.6,3.812,0,7.71-1.807,9.534-3.918ZM21.014,22.893H8.21V1.415H2.5V28.066H21.014ZM122.248,12.033c-3.146,0-5.431,2.384-5.431,5.776a5.587,5.587,0,0,0,5.506,5.776,5.438,5.438,0,0,0,5.43-5.776,5.586,5.586,0,0,0-5.506-5.776m0,16.379a10.612,10.612,0,1,1,11.063-10.6,10.645,10.645,0,0,1-11.063,10.6M78.875,12.033c-3.146,0-5.429,2.384-5.429,5.776a5.586,5.586,0,0,0,5.506,5.776,5.438,5.438,0,0,0,5.429-5.776,5.586,5.586,0,0,0-5.506-5.776m0,16.379a10.612,10.612,0,1,1,11.064-10.6,10.644,10.644,0,0,1-11.064,10.6" transform="translate(-2.5 -1.415)"/>
</svg>
