<svg xmlns="http://www.w3.org/2000/svg" xmlns:xlink="http://www.w3.org/1999/xlink" width="40" height="40" viewBox="0 0 40 40">
  <defs>
    <style>
      .cls-1, .cls-4 {
        fill: #704027;
      }

      .cls-1 {
        stroke: #707070;
      }

      .cls-2 {
        fill: #fff;
      }

      .cls-3 {
        clip-path: url(#clip-path);
      }
    </style>
    <clipPath id="clip-path">
      <rect id="Rectangle_9274" data-name="Rectangle 9274" class="cls-1" width="20" height="20" transform="translate(-19462 -16887)"/>
    </clipPath>
  </defs>
  <g id="Group_20092" data-name="Group 20092" transform="translate(-156 -2844)">
    <circle id="Ellipse_612" data-name="Ellipse 612" class="cls-2" cx="20" cy="20" r="20" transform="translate(156 2844)"/>
    <g id="Mask_Group_75" data-name="Mask Group 75" class="cls-3" transform="translate(19628 19741)">
      <g id="Group_20087" data-name="Group 20087" transform="translate(-19460.035 -16886.143)">
        <path id="rgba_0_0_0_1_" data-name="rgba(0,0,0,1)" class="cls-4" d="M125.768,0l.143.036h.5l.036.036.393.036.964.321.75.429.768.661.714.964.321.714.179.607.036.393.036.036v.5l.036.143-.036.036v.5l-.036.036-.036.393-.321.964-.429.75-.661.768-.964.714-.714.321-.607.179h-.179l-.25.071h-.5l-.143.036-.036-.036h-.5l-.036-.036-.393-.036-.964-.321-.75-.429-.768-.661-.714-.964-.321-.714-.179-.607V5.661l-.071-.25v-.5L121,4.768l.036-.036v-.5l.036-.036.036-.393.321-.964.429-.75.661-.768.571-.464.75-.429L124.8.107h.179l.25-.071h.5Z" transform="translate(-117.786 0)"/>
        <path id="rgba_0_0_0_1_2" data-name="rgba(0,0,0,1)" class="cls-4" d="M37.911,300h2.25l.036.036H40.8l1.25.25.714.25.893.464.857.607.589.554.821,1.036.607,1.143.393,1.286.036.429.071.25v.643l.036.107-.036.179-.2.232-.286.107H31.518l-.179-.036-.232-.2-.071-.107-.036-.25.036-.036V306.3l.071-.25.036-.429.393-1.286.286-.607.393-.643L33.125,302l1-.821,1.179-.643,1.286-.393.643-.071.036-.036h.607Z" transform="translate(-31 -289.286)"/>
      </g>
    </g>
  </g>
</svg>
