<svg xmlns="http://www.w3.org/2000/svg" width="95.829" height="40" viewBox="0 0 95.829 40">
  <defs>
    <style>
      .cls-1 {
        fill: #fff;
      }
    </style>
  </defs>
  <g id="Group_10577" data-name="Group 10577" transform="translate(-197.032 -200.267)">
    <g id="Group_10574" data-name="Group 10574" transform="translate(197.032 221.355)">
      <g id="Group_10572" data-name="Group 10572" transform="translate(32.155 0.025)">
        <path id="Path_5653" data-name="Path 5653" class="cls-1" d="M419.489,383.857a.311.311,0,0,0-.241.165,5.717,5.717,0,0,0-.394.9l-3.533,9.354c0,.017-.03.029-.089.038a1.555,1.555,0,0,1-.216.013,1.625,1.625,0,0,1-.2-.013c-.068-.009-.1-.021-.1-.038l-3.966-8.465-3.152,8.465c-.017.034-.119.051-.305.051s-.288-.017-.305-.051l-4.83-10.346a.386.386,0,0,0-.076-.064.381.381,0,0,0-.127-.013H400.4c-.016,0-.029-.028-.038-.085a1.263,1.263,0,0,1-.013-.183,1.726,1.726,0,0,1,.013-.219c.009-.065.022-.1.038-.1h6.685c.017,0,.025.034.025.1v.411c0,.049-.009.072-.025.072h-1.525c-.135,0-.186.025-.152.076l2.949,6.71,2.084-5.541-.559-1.169q-.051-.076-.254-.076h-1.271c-.034,0-.055-.028-.064-.085a1.213,1.213,0,0,1-.013-.183,1.659,1.659,0,0,1,.013-.219c.008-.065.029-.1.064-.1h6.431c.017,0,.025.034.025.1v.411c0,.049-.009.072-.025.072h-1.525c-.119,0-.161.025-.127.076l2.974,6.634,2.161-5.643a4.227,4.227,0,0,0,.28-.89c0-.118-.042-.178-.127-.178h-1.5c-.034,0-.055-.028-.063-.085a1.247,1.247,0,0,1-.012-.183,1.706,1.706,0,0,1,.012-.219c.008-.065.029-.1.063-.1h4.143c.017,0,.029.033.038.1a1.747,1.747,0,0,1,.013.219,1.28,1.28,0,0,1-.013.183c-.009.057-.021.085-.038.085Z" transform="translate(-400.348 -375.443)"/>
        <path id="Path_5654" data-name="Path 5654" class="cls-1" d="M526.244,389.668a5.608,5.608,0,0,1-1.22,1.792,5.867,5.867,0,0,1-1.8,1.207,5.492,5.492,0,0,1-2.2.445,5.336,5.336,0,0,1-2.161-.445,5.682,5.682,0,0,1-2.987-3,5.656,5.656,0,0,1,0-4.4,5.682,5.682,0,0,1,2.987-3,5.333,5.333,0,0,1,2.161-.445,5.489,5.489,0,0,1,2.2.445,5.876,5.876,0,0,1,1.8,1.207,5.608,5.608,0,0,1,1.22,1.792,5.656,5.656,0,0,1,0,4.4Zm-2.91-5.084a2.99,2.99,0,0,0-.712-1.589,1.432,1.432,0,0,0-.7-.432,3.636,3.636,0,0,0-.9-.1,3.3,3.3,0,0,0-.826.1,1.582,1.582,0,0,0-.725.432,3.119,3.119,0,0,0-.686,1.589,16.427,16.427,0,0,0-.2,2.91q0,1.043.051,1.779a10.4,10.4,0,0,0,.152,1.258,3.214,3.214,0,0,0,.28.864,2.833,2.833,0,0,0,.406.6,1.577,1.577,0,0,0,.725.432,3.291,3.291,0,0,0,.826.1,3.625,3.625,0,0,0,.9-.1,1.428,1.428,0,0,0,.7-.432,2.17,2.17,0,0,0,.419-.6,4,4,0,0,0,.28-.864,8.867,8.867,0,0,0,.165-1.258q.051-.737.051-1.779A16.461,16.461,0,0,0,523.333,384.584Z" transform="translate(-497.228 -374.226)"/>
        <path id="Path_5655" data-name="Path 5655" class="cls-1" d="M589.273,392.883c-.017,0-.03-.028-.038-.085a1.226,1.226,0,0,1-.013-.183,1.686,1.686,0,0,1,.013-.219c.008-.065.021-.1.038-.1h1.474c.085,0,.127-.034.127-.1v-7.143a4.142,4.142,0,0,0-.356-1.97,1.155,1.155,0,0,0-1.068-.623,2.87,2.87,0,0,0-1.881.585,4.235,4.235,0,0,0-1.169,2.033V392.2q0,.1.153.1h1.5c.017,0,.025.033.025.1v.411c0,.051-.009.076-.025.076H581.7c-.017,0-.03-.028-.038-.085a1.2,1.2,0,0,1-.013-.183,1.653,1.653,0,0,1,.013-.219c.008-.065.021-.1.038-.1h1.474c.135,0,.2-.034.2-.1v-9.455c0-.068-.068-.1-.2-.1H581.7c-.017,0-.03-.028-.038-.085a1.2,1.2,0,0,1-.013-.183,1.65,1.65,0,0,1,.013-.219c.008-.065.021-.1.038-.1h4.626a.068.068,0,0,1,.077.076v1.678a2.661,2.661,0,0,1,.508-.915,2.77,2.77,0,0,1,.737-.61,3.427,3.427,0,0,1,.877-.343,3.917,3.917,0,0,1,.928-.114,4.594,4.594,0,0,1,3.266,1.106,4.1,4.1,0,0,1,1.182,3.146V392.2c0,.068.059.1.178.1h1.474c.016,0,.029.033.038.1a1.756,1.756,0,0,1,.012.219,1.278,1.278,0,0,1-.012.183c-.009.057-.022.085-.038.085Z" transform="translate(-552.974 -374.226)"/>
        <path id="Path_5656" data-name="Path 5656" class="cls-1" d="M666.235,352.426c-.034,0-.055-.028-.063-.085a1.218,1.218,0,0,1-.013-.183,1.676,1.676,0,0,1,.013-.219c.009-.065.029-.1.063-.1H667.3q.2,0,.127-.1l-4.016-5.109v5.109c0,.068.051.1.153.1h1.474v.585h-6.355c-.017,0-.03-.028-.038-.085a1.235,1.235,0,0,1-.013-.183,1.7,1.7,0,0,1,.013-.219c.009-.065.021-.1.038-.1h1.525c.118,0,.178-.034.178-.1V334.48c0-.068-.059-.1-.178-.1h-1.525c-.017,0-.03-.029-.038-.089a1.34,1.34,0,0,1-.013-.191,1.849,1.849,0,0,1,.013-.229c.009-.068.021-.1.038-.1h4.574c.1,0,.154.025.154.076v12.633L667.1,343.3q.406-.382.648-.585a3.518,3.518,0,0,0,.343-.318c.068-.076.1-.123.1-.14s-.025-.025-.076-.025h-1.372c-.017,0-.03-.03-.038-.089a1.3,1.3,0,0,1-.013-.191,1.8,1.8,0,0,1,.013-.229c.008-.068.021-.1.038-.1h4.092v.61h-1.474a.611.611,0,0,0-.165.025.987.987,0,0,0-.254.14q-.165.115-.419.331t-.686.572l-2.262,1.906,5.16,6.533a.376.376,0,0,0,.28.1h2.008c.017,0,.029.033.038.1a1.739,1.739,0,0,1,.013.219,1.267,1.267,0,0,1-.013.183c-.009.057-.021.085-.038.085Z" transform="translate(-617.787 -333.768)"/>
        <path id="Path_5657" data-name="Path 5657" class="cls-1" d="M743.1,392.634a3.045,3.045,0,0,1-2.224.191,3.293,3.293,0,0,1-.788-.356,2.34,2.34,0,0,1-.61-.534,1.587,1.587,0,0,1-.317-.661,2.468,2.468,0,0,1-.915,1.233,2.776,2.776,0,0,1-1.627.445,6.871,6.871,0,0,1-1.372-.14,4.422,4.422,0,0,1-1.245-.445,2.642,2.642,0,0,1-.915-.813,2.162,2.162,0,0,1-.356-1.271,2.773,2.773,0,0,1,.432-1.614,3.183,3.183,0,0,1,1.03-.966,4.067,4.067,0,0,1,1.233-.47q.635-.127,1.042-.178,1.118-.1,1.881-.229t.762-.534v-1.932a5.306,5.306,0,0,0-.1-1.182,1.3,1.3,0,0,0-.3-.623.836.836,0,0,0-.5-.241,5.025,5.025,0,0,0-.648-.038h-.509a1.415,1.415,0,0,0-.445.064.589.589,0,0,0-.3.229.934.934,0,0,0-.114.521,1.263,1.263,0,0,0,.1.559,1.2,1.2,0,0,1,.1.534,1,1,0,0,1-.292.712,1.355,1.355,0,0,1-1,.305,1.144,1.144,0,0,1-.966-.394,1.331,1.331,0,0,1-.025-1.665,2.762,2.762,0,0,1,.788-.737,4.6,4.6,0,0,1,1.182-.534,5.136,5.136,0,0,1,1.487-.2,4.794,4.794,0,0,1,3.3,1.106,4.449,4.449,0,0,1,1.246,3.5v4.957q0,.864.559.864a.927.927,0,0,0,.534-.14.589.589,0,0,0,.254-.343c0-.017.021-.008.064.025l.14.114a.927.927,0,0,1,.127.127.2.2,0,0,1,.051.089A1.415,1.415,0,0,1,743.1,392.634Zm-3.966-5.5a2.612,2.612,0,0,1-1,.343q-.521.064-1.106.14a3.4,3.4,0,0,0-.6.178.835.835,0,0,0-.394.356,2.005,2.005,0,0,0-.216.762,11.6,11.6,0,0,0-.064,1.373q0,.407.026.763a1.712,1.712,0,0,0,.152.623.941.941,0,0,0,.394.419,1.587,1.587,0,0,0,.775.152,1.692,1.692,0,0,0,1.474-.864,3.756,3.756,0,0,0,.559-2.084Z" transform="translate(-680.163 -374.09)"/>
      </g>
      <g id="Group_10573" data-name="Group 10573" transform="translate(0 0)">
        <path id="Path_5658" data-name="Path 5658" class="cls-1" d="M207.733,387.071h-7.524v.559q0,1.043.051,1.779a7.549,7.549,0,0,0,.178,1.258,3.891,3.891,0,0,0,.305.864,2.1,2.1,0,0,0,.458.6,1.43,1.43,0,0,0,.686.432,3.585,3.585,0,0,0,.915.1,5.366,5.366,0,0,0,2.567-.6,5.255,5.255,0,0,0,1.8-1.538q.025-.025.2.127t.152.2a5.214,5.214,0,0,1-2.021,1.741,5.928,5.928,0,0,1-2.707.648,5.72,5.72,0,0,1-2.211-.432,5.787,5.787,0,0,1-3.089-2.987,5.376,5.376,0,0,1,0-4.4,5.846,5.846,0,0,1,1.258-1.792,5.981,5.981,0,0,1,1.83-1.207,5.579,5.579,0,0,1,2.211-.445,4.354,4.354,0,0,1,2.186.534,5.468,5.468,0,0,1,1.576,1.322,5.606,5.606,0,0,1,.941,1.652,4.616,4.616,0,0,1,.305,1.5A.067.067,0,0,1,207.733,387.071ZM205,385.139a5.5,5.5,0,0,0-.178-.915,2.818,2.818,0,0,0-.267-.635,3.239,3.239,0,0,0-.356-.483,1.309,1.309,0,0,0-.623-.432,2.743,2.743,0,0,0-.775-.1,3.607,3.607,0,0,0-.915.1,1.435,1.435,0,0,0-.686.432,4.569,4.569,0,0,0-.42.483,2.022,2.022,0,0,0-.3.635,6.378,6.378,0,0,0-.191.915,9.369,9.369,0,0,0-.076,1.3h4.855A11.271,11.271,0,0,0,205,385.139Z" transform="translate(-197.032 -374.336)"/>
        <path id="Path_5659" data-name="Path 5659" class="cls-1" d="M269.026,352.29a.068.068,0,0,1-.076-.076V351.1a1.284,1.284,0,0,1-.267.394,2.664,2.664,0,0,1-.585.47,3.911,3.911,0,0,1-2.072.559,4.792,4.792,0,0,1-2.148-.47,5.055,5.055,0,0,1-1.627-1.258A5.807,5.807,0,0,1,261.21,349a5.894,5.894,0,0,1-.368-2.046,5.149,5.149,0,0,1,.445-2.084,6.42,6.42,0,0,1,1.207-1.83,6,6,0,0,1,1.792-1.309,5,5,0,0,1,2.2-.5,3.433,3.433,0,0,1,1.411.267,3.122,3.122,0,0,1,1.055.775v-7.956c0-.068-.051-.1-.152-.1h-1.449c-.017,0-.03-.029-.038-.089a1.315,1.315,0,0,1-.013-.191,1.814,1.814,0,0,1,.013-.229c.008-.068.021-.1.038-.1h4.525c.068,0,.1.025.1.076v17.9c0,.068.059.1.178.1h1.5c.016,0,.025.034.025.1v.432c0,.051-.009.076-.025.076Zm-.076-8.922a1.355,1.355,0,0,0-.33-.635,2.266,2.266,0,0,0-.61-.47,3.377,3.377,0,0,0-.75-.292,3.106,3.106,0,0,0-.775-.1,2.819,2.819,0,0,0-.877.114,2.049,2.049,0,0,0-.674.394,3.077,3.077,0,0,0-.712,1.665,17.417,17.417,0,0,0-.2,2.936,16,16,0,0,0,.2,2.872,2.968,2.968,0,0,0,.712,1.576q.152.153.242.254a.625.625,0,0,0,.191.153.874.874,0,0,0,.242.076,2.5,2.5,0,0,0,.419.026,4.015,4.015,0,0,0,1.411-.216,2.412,2.412,0,0,0,.9-.559,2.05,2.05,0,0,0,.47-.737,2.241,2.241,0,0,0,.14-.75Z" transform="translate(-250.75 -333.607)"/>
        <path id="Path_5660" data-name="Path 5660" class="cls-1" d="M339.924,394.1c-.068,0-.1-.026-.1-.076v-1.678a2.674,2.674,0,0,1-.509.915,2.7,2.7,0,0,1-.75.61,3.643,3.643,0,0,1-.89.343,3.917,3.917,0,0,1-.928.115,4.814,4.814,0,0,1-3.231-1.017,3.787,3.787,0,0,1-1.192-3.05v-6.278c0-.068-.068-.1-.2-.1h-1.5a2.078,2.078,0,0,1-.026-.28,2.765,2.765,0,0,1,.026-.331h4.651a.068.068,0,0,1,.077.076v7.778a4.076,4.076,0,0,0,.369,2,1.142,1.142,0,0,0,1.03.623,2.859,2.859,0,0,0,1.919-.6,4.4,4.4,0,0,0,1.157-2.047v-7.117c0-.068-.06-.1-.178-.1H338.2c-.034,0-.055-.029-.063-.089a1.29,1.29,0,0,1-.013-.191,1.785,1.785,0,0,1,.013-.229c.008-.068.029-.1.063-.1h4.576a.068.068,0,0,1,.076.076v10.066q0,.1.178.1H344.5c.016,0,.025.033.025.1v.411c0,.051-.009.076-.025.076Z" transform="translate(-309.472 -375.417)"/>
      </g>
    </g>
    <g id="Group_10576" data-name="Group 10576" transform="translate(255.364 200.267)">
      <g id="Group_10575" data-name="Group 10575" transform="translate(4.619 6.443)">
        <path id="Path_5661" data-name="Path 5661" class="cls-1" d="M618.5,253.835c0-.007,0-.015,0-.022-.171-.659-2.78-.6-6.485.047q-.314-.736-.559-1.5a32.83,32.83,0,0,1-1.267-6.882c-.135-1.413-.232-2.829-.324-4.245-.013-.2-.057-.279-.263-.191a2.3,2.3,0,0,1-.326.087q-3.081.8-6.162,1.6-3.339.864-6.68,1.718c-.165.042-.153.1-.091.226.326.679.641,1.363.963,2.045.691,1.465,1.374,2.935,1.962,4.445a24.594,24.594,0,0,1,1.331,4.5c.067.369.118.739.161,1.109-3.544,1.233-5.849,2.441-5.679,3.1l0,0h0l0,0a.355.355,0,0,0,.146.185,1.347,1.347,0,0,0,.494.312,3.992,3.992,0,0,0,1.538.224,23.451,23.451,0,0,0,4.8-.709c1.483-.331,2.946-.742,4.419-1.115l.062-.016q.346-.086.7-.176l.322-.085c1.671-.431,3.335-.883,4.981-1.4a28.318,28.318,0,0,0,4.017-1.549,5.4,5.4,0,0,0,1.625-1.1,1.435,1.435,0,0,0,.221-.3.445.445,0,0,0,.1-.3s0-.008,0-.012Z" transform="translate(-595.073 -241.007)"/>
      </g>
      <path id="Path_5662" data-name="Path 5662" class="cls-1" d="M719.954,257.8l.416,1.8,1.836.16-1.579.95.415,1.8-1.392-1.208-1.579.95.719-1.7-1.392-1.208,1.836.16Z" transform="translate(-693.434 -248.704)"/>
      <path id="Path_5663" data-name="Path 5663" class="cls-1" d="M617.907,200.267l.416,1.8,1.836.16-1.579.95.416,1.8L617.6,203.76l-1.579.95.719-1.7-1.392-1.208,1.836.16Z" transform="translate(-607.526 -200.267)"/>
      <path id="Path_5664" data-name="Path 5664" class="cls-1" d="M699.834,206.863l.23.993,1.016.088-.874.526.23.993-.77-.669-.874.526.4-.939-.77-.669,1.016.088Z" transform="translate(-677.457 -205.82)"/>
      <path id="Path_5665" data-name="Path 5665" class="cls-1" d="M567.282,258.563l.23.993,1.016.088-.874.526.23.993-.77-.669-.874.526.4-.939-.77-.669,1.016.088Z" transform="translate(-565.868 -249.343)"/>
      <path id="Path_5666" data-name="Path 5666" class="cls-1" d="M570.436,316.05l.142.614.628.055-.54.325.142.614-.476-.413-.54.325.246-.58-.476-.413.628.055Z" transform="translate(-568.978 -297.739)"/>
    </g>
  </g>
</svg>
