<svg xmlns="http://www.w3.org/2000/svg" xmlns:xlink="http://www.w3.org/1999/xlink" width="64" height="64" viewBox="0 0 64 64">
  <defs>
    <style>
      .cls-1 {
        fill: #aeaeae;
      }

      .cls-2 {
        fill: #fff;
      }

      .cls-3 {
        clip-path: url(#clip-path);
      }

      .cls-4 {
        filter: url(#Ellipse_613);
      }
    </style>
    <filter id="Ellipse_613" x="0" y="0" width="64" height="64" filterUnits="userSpaceOnUse">
      <feOffset dy="3" input="SourceAlpha"/>
      <feGaussianBlur stdDeviation="4" result="blur"/>
      <feFlood flood-opacity="0.122"/>
      <feComposite operator="in" in2="blur"/>
      <feComposite in="SourceGraphic"/>
    </filter>
    <clipPath id="clip-path">
      <rect id="Rectangle_9279" data-name="Rectangle 9279" class="cls-1" width="20" height="20" transform="translate(-16394 -17279)"/>
    </clipPath>
  </defs>
  <g id="Group_20098" data-name="Group 20098" transform="translate(-144 -3011)">
    <g class="cls-4" transform="matrix(1, 0, 0, 1, 144, 3011)">
      <circle id="Ellipse_613-2" data-name="Ellipse 613" class="cls-2" cx="20" cy="20" r="20" transform="translate(12 9)"/>
    </g>
    <g id="Mask_Group_80" data-name="Mask Group 80" class="cls-3" transform="translate(16560 20309)">
      <g id="Group_20091" data-name="Group 20091" transform="translate(-16391.715 -17278.143)">
        <path id="rgba_3_1_4_1_" data-name="rgba(3,1,4,1)" class="cls-1" d="M45.589,0l.036.036H45.8l.339.232.143.286V1.875l-.071.179-.2.232-.214.107h-.393L45.2,2.286l-.161-.161-.089-.161L42.018,3.786l-.446.339-.179.357-.036.393.036.179.161.232.143.071h.536l.571-.179.714-.357,5.25-3.464.179-.071H49.3l.214.107.2.2.071.143.036.357-.107.321-.232.232L46.125,4.857l-.554.482-.429.679-.179.607-.036.464-.036.036v.643l-.036.036v6.964l-.107.214-.161.161-.321.143-.464.107h-.25l-.036.036h-1l-.036-.036-.607-.071-.679-.214-.5-.286-.339-.3-.179-.25L40,13.8V4.411l.107-.429.214-.464.554-.625,2.357-1.464,2-1.321Z" transform="translate(-40 0)"/>
        <path id="rgba_3_1_4_1_2" data-name="rgba(3,1,4,1)" class="cls-1" d="M202.554,70h.179l.214.071.232.2.143.357v1.214l-.107.25-.2.2-.214.107h-.321l-.25-.107-.161-.161-.089-.161L199.018,74l-.482.446-.143.321v.357l.071.179.2.2.321.107h.393l.821-.214.714-.357,2.536-1.857,2.286-1.786.357-.143.357.071.3.268.071.179v9.5l-.107.214-.2.2-3.893,2.964-1.071.75-.714.286-.357.071-.571.036-.036-.036-.643-.036-.75-.214-.607-.321-.482-.446-.321-.571-.036-.393L197,83.732V74.875l.036-.036v-.321l.143-.464.25-.429.411-.446,4.036-2.821.321-.214Zm2.911,5.071-3.429,2.643-.143.143v1.357H202l.143-.107,3.321-2.607Z" transform="translate(-191.393 -67.5)"/>
      </g>
    </g>
  </g>
</svg>
