<svg xmlns="http://www.w3.org/2000/svg" xmlns:xlink="http://www.w3.org/1999/xlink" width="64" height="64" viewBox="0 0 64 64">
  <defs>
    <style>
      .cls-1 {
        fill: #aeaeae;
      }

      .cls-2 {
        fill: #fff;
      }

      .cls-3 {
        clip-path: url(#clip-path);
      }

      .cls-4 {
        filter: url(#Ellipse_613);
      }
    </style>
    <filter id="Ellipse_613" x="0" y="0" width="64" height="64" filterUnits="userSpaceOnUse">
      <feOffset dy="3" input="SourceAlpha"/>
      <feGaussianBlur stdDeviation="4" result="blur"/>
      <feFlood flood-opacity="0.122"/>
      <feComposite operator="in" in2="blur"/>
      <feComposite in="SourceGraphic"/>
    </filter>
    <clipPath id="clip-path">
      <rect id="Rectangle_9277" data-name="Rectangle 9277" class="cls-1" width="20" height="20" transform="translate(-17281 -17279)"/>
    </clipPath>
  </defs>
  <g id="Group_20097" data-name="Group 20097" transform="translate(-144 -3099)">
    <g class="cls-4" transform="matrix(1, 0, 0, 1, 144, 3099)">
      <circle id="Ellipse_613-2" data-name="Ellipse 613" class="cls-2" cx="20" cy="20" r="20" transform="translate(12 9)"/>
    </g>
    <g id="Mask_Group_78" data-name="Mask Group 78" class="cls-3" transform="translate(17447 20397)">
      <g id="Group_20089" data-name="Group 20089" transform="translate(-17278.572 -17278.143)">
        <path id="rgba_0_0_0_1_" data-name="rgba(0,0,0,1)" class="cls-1" d="M239.589,0l.357.107.161.161.107.321V2.054l-.107.286-.2.2-.179.071h-.25l-.179-.071-.2-.2L239,2.018V.589l.107-.321.161-.161Z" transform="translate(-232.036 0)"/>
        <path id="rgba_0_0_0_1_2" data-name="rgba(0,0,0,1)" class="cls-1" d="M119.411,40h.321l.3.2.857,1.179.107.25v.214l-.071.179-.2.2-.25.107H120.3l-.25-.107-.161-.161-.821-1.143L119,40.768v-.357l.143-.268Z" transform="translate(-116.321 -38.571)"/>
        <path id="rgba_0_0_0_1_3" data-name="rgba(0,0,0,1)" class="cls-1" d="M338.268,40h.321l.3.2.107.214v.357l-.893,1.286-.161.161-.25.107h-.179l-.25-.107-.2-.2L337,41.839v-.214l.179-.357.875-1.161Z" transform="translate(-326.536 -38.571)"/>
        <path id="rgba_0_0_0_1_4" data-name="rgba(0,0,0,1)" class="cls-1" d="M138.054,101l.929.036.643.143.393.143.75.393.464.357.411.411.536.75.357.821.179.857v.893l-.214,1-.286.643-1.036,1.429-.821,1.286v1.446h-4v-1.446l-.643-1.036-.893-1.179-.464-.786-.143-.357-.179-.714v-.214l-.036-.036v-.929l.179-.857.357-.821.5-.714.446-.446.464-.357.75-.393.821-.25.5-.036Z" transform="translate(-130.786 -97.393)"/>
        <path id="rgba_0_0_0_1_5" data-name="rgba(0,0,0,1)" class="cls-1" d="M44.411,143h.357l1.321.429.375.3.036.107v.357l-.232.3-.25.107h-.179l-1.464-.464-.268-.2L44,143.732v-.321l.268-.339Z" transform="translate(-44 -137.893)"/>
        <path id="rgba_0_0_0_1_6" data-name="rgba(0,0,0,1)" class="cls-1" d="M399.732,143h.357l.339.268.071.143v.321l-.2.3-.179.107-.857.286-.607.179h-.179l-.25-.107-.161-.161L398,144.2v-.357l.268-.339Z" transform="translate(-385.357 -137.893)"/>
        <path id="rgba_0_0_0_1_7" data-name="rgba(0,0,0,1)" class="cls-1" d="M45.732,258h.357l.3.2.107.214v.357l-.232.3-1.107.393-.5.143h-.143l-.286-.107-.125-.125L44,259.161v-.321l.268-.339Z" transform="translate(-44 -248.786)"/>
        <path id="rgba_0_0_0_1_8" data-name="rgba(0,0,0,1)" class="cls-1" d="M398.411,258h.357l1.321.429.339.268.071.143v.321l-.232.339-.143.071-.286.036-1.464-.464-.268-.2-.107-.179v-.357l.2-.3Z" transform="translate(-385.357 -248.786)"/>
        <path id="rgba_0_0_0_1_9" data-name="rgba(0,0,0,1)" class="cls-1" d="M119.268,341l.429.036.232.2.107.25v.214l-.321.536-.768.982-.143.071-.25.036-.286-.107-.161-.161L118,342.7l.071-.25.143-.214.679-.929.232-.232Z" transform="translate(-115.357 -328.821)"/>
        <path id="rgba_0_0_0_1_10" data-name="rgba(0,0,0,1)" class="cls-1" d="M337.446,341h.321l.375.3.821,1.143.036.107v.357l-.232.3-.143.071-.25.036-.286-.107-.2-.2-.821-1.143L337,341.7v-.214l.107-.25.161-.161Z" transform="translate(-326.536 -328.821)"/>
        <path id="rgba_0_0_0_1_11" data-name="rgba(0,0,0,1)" class="cls-1" d="M198.339,418H201.8l.232.161.107.214v.143l-.232.3-.214.071h-3.25l-.214-.071-.2-.2-.036-.25.2-.3Z" transform="translate(-192.5 -403.071)"/>
        <path id="rgba_0_0_0_1_12" data-name="rgba(0,0,0,1)" class="cls-1" d="M205,463h3.625l.018.125-.143.393-.2.232-.357.214-.3.036-.107.339-.161.2-.321.179-.25.036-.393-.107-.232-.2-.143-.25L206,464l-.3-.036-.446-.3-.179-.286Z" transform="translate(-199.25 -446.464)"/>
      </g>
    </g>
  </g>
</svg>
