<svg xmlns="http://www.w3.org/2000/svg" xmlns:xlink="http://www.w3.org/1999/xlink" width="64" height="64" viewBox="0 0 64 64">
  <defs>
    <style>
      .cls-1 {
        fill: #aeaeae;
      }

      .cls-2 {
        fill: #fff;
      }

      .cls-3 {
        clip-path: url(#clip-path);
      }

      .cls-4 {
        filter: url(#Ellipse_613);
      }
    </style>
    <filter id="Ellipse_613" x="0" y="0" width="64" height="64" filterUnits="userSpaceOnUse">
      <feOffset dy="3" input="SourceAlpha"/>
      <feGaussianBlur stdDeviation="4" result="blur"/>
      <feFlood flood-opacity="0.122"/>
      <feComposite operator="in" in2="blur"/>
      <feComposite in="SourceGraphic"/>
    </filter>
    <clipPath id="clip-path">
      <rect id="Rectangle_9276" data-name="Rectangle 9276" class="cls-1" width="20" height="20" transform="translate(-18010 -17279)"/>
    </clipPath>
  </defs>
  <g id="Group_20094" data-name="Group 20094" transform="translate(-144 -3363)">
    <g class="cls-4" transform="matrix(1, 0, 0, 1, 144, 3363)">
      <circle id="Ellipse_613-2" data-name="Ellipse 613" class="cls-2" cx="20" cy="20" r="20" transform="translate(12 9)"/>
    </g>
    <g id="Mask_Group_77" data-name="Mask Group 77" class="cls-3" transform="translate(18176 20661)">
      <g id="Group_20088" data-name="Group 20088" transform="translate(-18009.143 -17278.143)">
        <path id="rgba_0_0_0_1_" data-name="rgba(0,0,0,1)" class="cls-1" d="M6.268,0l.071.036h.429L7.554.25l.429.214.625.482V17.339l-.125.125-.5.357-.429.214-.786.214H6.339l-.071.036-.036-.036H5.8l-.786-.214-.75-.429-.554-.518-.357-.5-.214-.429-.214-.786v-.429l-.036-.071.036-.036v-.179l-.054-.054-.321-.036-.429-.143L1.7,14.214l-.5-.357-.375-.375-.25-.321L.25,12.554l-.214-.786v-.429L0,11.232.036,11.2V10.8l.071-.357.143-.429.214-.429.321-.464L.464,8.7.25,8.268.036,7.482V7.089L0,6.982l.036-.036V6.518L.25,5.732l.321-.607.625-.7.321-.25.607-.321.429-.143.321-.036.054-.054-.036-.25.036-.036V2.911l.214-.786.429-.75L4.089.821l.321-.25L5.018.25,5.446.107,5.8.036h.429Z" transform="translate(0 0)"/>
        <path id="rgba_0_0_0_1_2" data-name="rgba(0,0,0,1)" class="cls-1" d="M273.3,0l.071.036h.429l.786.214.75.429.554.518.25.321.321.607.214.786v.429l.036.071-.036.036v.179l.054.054.321.036.429.143.429.214.5.357.375.375.357.5.214.429.214.786v.429l.036.071-.036.036v.429l-.214.786-.214.429-.321.464.214.25.321.607.214.786v.429l.036.071-.036.036v.429l-.214.786-.429.75-.518.554-.5.357-.429.214-.429.143-.321.036-.054.054.036.25-.036.036v.429l-.214.786-.321.607-.625.7-.5.357-.429.214-.786.214h-.429l-.071.036-.036-.036h-.429l-.786-.214-.429-.214L271,17.339V13.268l.018-.018h1.107l.2.375.3.339.25.179.357.143.143.036h.607l.5-.179.446-.375.179-.25.143-.357.036-.143v-.607l-.179-.5-.375-.446-.25-.179-.357-.143-.143-.036h-.607l-.5.179-.446.375-.3.518H271v-2.5h2.554l.054.054.143.321.3.339.25.179.357.143.143.036h.607l.5-.179.446-.375.179-.25.143-.357.036-.143V8.839l-.179-.5-.375-.446-.25-.179-.357-.143-.143-.036H274.8l-.5.179-.446.375-.3.518H271v-2.5h1.125l.054.054.143.321.3.339.25.179.357.143.143.036h.607l.5-.179.446-.375.179-.25.143-.357.036-.143V5.268l-.179-.5-.375-.446-.25-.179L274.125,4l-.143-.036h-.607l-.5.179-.446.375-.3.518h-1.107L271,5.018V.946l.625-.482.429-.214.429-.143.357-.071h.429Z" transform="translate(-261.321 0)"/>
        <path id="rgba_0_0_0_1_3" data-name="rgba(0,0,0,1)" class="cls-1" d="M331.518,141l.321.107.125.125.107.321-.107.286-.125.125-.321.107-.286-.107-.125-.125-.107-.321.107-.286.125-.125Z" transform="translate(-319.179 -135.964)"/>
        <path id="rgba_0_0_0_1_4" data-name="rgba(0,0,0,1)" class="cls-1" d="M371.518,241l.321.107.125.125.107.321-.107.286-.125.125-.321.107-.286-.107-.125-.125-.107-.321.107-.286.125-.125Z" transform="translate(-357.75 -232.393)"/>
        <path id="rgba_0_0_0_1_5" data-name="rgba(0,0,0,1)" class="cls-1" d="M331.518,341l.321.107.125.125.107.321-.107.286-.125.125-.321.107-.286-.107-.125-.125-.107-.321.107-.286.125-.125Z" transform="translate(-319.179 -328.821)"/>
      </g>
    </g>
  </g>
</svg>
